HIERARCHY
ROOT Hips
{
	OFFSET 0.000000 1.471914 24.280096
	CHANNELS 6 Xposition Yposition Zposition Xrotation Yrotation Zrotation
	JOINT Spine
	{
		OFFSET 0.000000 0.900110 1.860670
		CHANNELS 6 Xposition Yposition Zposition Xrotation Yrotation Zrotation
		JOINT Spine1
		{
			OFFSET 0.000000 0.400320 2.270309
			CHANNELS 6 Xposition Yposition Zposition Xrotation Yrotation Zrotation
			JOINT Spine2
			{
				OFFSET 0.000000 0.200920 2.296560
				CHANNELS 6 Xposition Yposition Zposition Xrotation Yrotation Zrotation
				JOINT Spine3
				{
					OFFSET 0.000000 0.000000 2.305330
					CHANNELS 6 Xposition Yposition Zposition Xrotation Yrotation Zrotation
					JOINT Neck
					{
						OFFSET 0.000000 -0.864490 6.051487
						CHANNELS 6 Xposition Yposition Zposition Xrotation Yrotation Zrotation
						JOINT Head
						{
							OFFSET 0.000000 -0.550429 3.121674
							CHANNELS 6 Xposition Yposition Zposition Xrotation Yrotation Zrotation
							End Site
							{
								OFFSET 0.000000 0.000000 3.731750
							}
						}
					}
					JOINT RightShoulder
					{
						OFFSET -0.788280 -1.313800 4.256718
						CHANNELS 6 Xposition Yposition Zposition Xrotation Yrotation Zrotation
						JOINT RightArm
						{
							OFFSET -3.915130 0.000000 0.000000
							CHANNELS 6 Xposition Yposition Zposition Xrotation Yrotation Zrotation
							JOINT RightForeArm
							{
								OFFSET -6.914910 0.000000 0.000000
								CHANNELS 6 Xposition Yposition Zposition Xrotation Yrotation Zrotation
								JOINT RightHand
								{
									OFFSET -6.096219 0.000000 0.000000
									CHANNELS 6 Xposition Yposition Zposition Xrotation Yrotation Zrotation
									JOINT RightHandEnd
									{
										OFFSET -1.749950 0.000000 0.000000
										CHANNELS 6 Xposition Yposition Zposition Xrotation Yrotation Zrotation
										End Site
										{
											OFFSET -1.749950 0.000000 0.000000
										}
									}
									JOINT RightHandThumb1
									{
										OFFSET -0.699980 -1.166630 -0.466648
										CHANNELS 6 Xposition Yposition Zposition Xrotation Yrotation Zrotation
										End Site
										{
											OFFSET -1.690319 -0.452920 0.000000
										}
									}
								}
							}
						}
					}
					JOINT LeftShoulder
					{
						OFFSET 0.788280 -1.313800 4.256718
						CHANNELS 6 Xposition Yposition Zposition Xrotation Yrotation Zrotation
						JOINT LeftArm
						{
							OFFSET 3.915130 0.000000 0.000000
							CHANNELS 6 Xposition Yposition Zposition Xrotation Yrotation Zrotation
							JOINT LeftForeArm
							{
								OFFSET 6.914910 0.000000 0.000000
								CHANNELS 6 Xposition Yposition Zposition Xrotation Yrotation Zrotation
								JOINT LeftHand
								{
									OFFSET 6.096219 0.000000 0.000000
									CHANNELS 6 Xposition Yposition Zposition Xrotation Yrotation Zrotation
									JOINT LeftHandEnd
									{
										OFFSET 1.749950 0.000000 0.000000
										CHANNELS 6 Xposition Yposition Zposition Xrotation Yrotation Zrotation
										End Site
										{
											OFFSET 1.749950 0.000000 0.000000
										}
									}
									JOINT LeftHandThumb1
									{
										OFFSET 0.699980 -1.166630 -0.466648
										CHANNELS 6 Xposition Yposition Zposition Xrotation Yrotation Zrotation
										End Site
										{
											OFFSET 1.690319 -0.452920 0.000000
										}
									}
								}
							}
						}
					}
				}
			}
		}
	}
	JOINT RightUpLeg
	{
		OFFSET -2.338570 -0.252550 -0.551512
		CHANNELS 6 Xposition Yposition Zposition Xrotation Yrotation Zrotation
		JOINT RightLeg
		{
			OFFSET 0.000000 0.000000 -10.744959
			CHANNELS 6 Xposition Yposition Zposition Xrotation Yrotation Zrotation
			JOINT RightFoot
			{
				OFFSET 0.000000 -0.000001 -10.930849
				CHANNELS 6 Xposition Yposition Zposition Xrotation Yrotation Zrotation
				JOINT RightToeBase
				{
					OFFSET 0.000000 -4.087269 -1.487650
					CHANNELS 6 Xposition Yposition Zposition Xrotation Yrotation Zrotation
					End Site
					{
						OFFSET 0.000000 -1.891870 0.000000
					}
				}
			}
		}
	}
	JOINT LeftUpLeg
	{
		OFFSET 2.338570 -0.252550 -0.551512
		CHANNELS 6 Xposition Yposition Zposition Xrotation Yrotation Zrotation
		JOINT LeftLeg
		{
			OFFSET 0.000000 0.000000 -10.744959
			CHANNELS 6 Xposition Yposition Zposition Xrotation Yrotation Zrotation
			JOINT LeftFoot
			{
				OFFSET 0.000000 -0.000001 -10.930849
				CHANNELS 6 Xposition Yposition Zposition Xrotation Yrotation Zrotation
				JOINT LeftToeBase
				{
					OFFSET 0.000000 -4.087269 -1.487650
					CHANNELS 6 Xposition Yposition Zposition Xrotation Yrotation Zrotation
					End Site
					{
						OFFSET 0.000000 -1.891870 0.000000
					}
				}
			}
		}
	}
}
MOTION
Frames: 5
Frame Time: 0.041667
0.000001 26.511671 40.166294 -5.750161 5.905510 -21.569826 0.000002 0.900111 1.860675 16.377079 -3.635041 -0.338250 0.000005 0.400316 2.270308 -0.000001 -0.000000 -0.000003 0.000003 0.200919 2.296555 -0.000001 0.000000 -0.000001 0.000004 0.000005 2.305338 0.000015 0.000001 2.450290 -0.000002 -0.864477 6.051483 7.275958 -1.801301 -177.968215 0.000001 -0.550429 3.121693 0.000000 0.000001 -0.000000 -0.788283 -1.313793 4.256720 -211.687356 28.719405 20.222800 -3.915143 0.000003 0.000008 -0.000002 0.000004 0.000001 -6.914901 0.000008 0.000014 -0.000002 -0.000008 -67.899621 -6.096214 -0.000007 -0.000004 -0.000064 -0.000072 -0.000000 -1.749955 0.000006 -0.000003 0.000003 0.000002 0.000006 -0.699992 -1.166624 -0.466638 0.000001 -0.000006 -0.000000 0.788275 -1.313807 4.256708 -159.464590 -45.441737 -2.145582 3.915134 0.000009 0.000004 0.000005 -0.000003 0.000003 6.914906 0.000003 0.000004 0.000007 -0.000010 59.698633 6.096215 0.000000 -0.000002 -0.000055 0.000082 -0.000000 1.749949 -0.000006 0.000001 0.000005 -0.000003 -0.000002 0.699969 -1.166625 -0.466659 0.000003 -0.000005 0.000001 -2.338571 -0.252550 -0.551501 21.335305 -5.303891 -0.433875 -0.000001 0.000002 -10.744960 7.304062 2.915849 -0.813653 -0.000000 0.000007 -10.930851 0.000003 -0.000002 -0.000004 0.000001 -4.087275 -1.487645 0.000004 -0.000000 0.000001 2.338570 -0.252552 -0.551496 15.042566 -4.800163 -0.313978 -0.000002 0.000010 -10.744960 7.183313 1.989971 -0.747050 -0.000000 0.000005 -10.930843 -0.000005 -0.000007 -0.000002 -0.000000 -4.087268 -1.487649 -0.000001 0.000001 0.000005 
-0.000011 26.511667 40.166264 -5.499164 7.063543 -22.397240 0.000001 0.900112 1.860668 16.401022 -5.587136 -0.121857 0.000002 0.400316 2.270311 -0.000001 -0.000000 -0.000002 0.000002 0.200918 2.296555 -0.000002 0.000000 0.000002 0.000004 0.000002 2.305335 0.000014 -0.000000 2.110916 -0.000001 -0.864472 6.051488 7.690981 -1.356407 -177.780754 0.000001 -0.550429 3.121685 0.000001 -0.000000 0.000002 -0.788285 -1.313786 4.256723 -217.882488 30.354508 24.991654 -3.915147 0.000003 0.000004 0.000002 0.000003 0.000002 -6.914899 0.000011 0.000006 -0.000002 -0.000007 -69.536442 -6.096214 -0.000004 -0.000000 -0.000061 -0.000069 -0.000002 -1.749953 0.000011 -0.000008 0.000006 -0.000001 0.000001 -0.699995 -1.166618 -0.466643 0.000007 -0.000002 -0.000001 0.788274 -1.313801 4.256718 -159.119488 -44.320565 -2.216862 3.915132 -0.000001 0.000000 0.000001 0.000000 0.000000 6.914911 0.000005 0.000004 0.000004 -0.000008 63.255844 6.096231 -0.000001 -0.000004 -0.000060 0.000082 -0.000000 1.749940 -0.000003 -0.000007 0.000003 0.000002 0.000003 0.699964 -1.166622 -0.466661 0.000001 0.000002 -0.000002 -2.338573 -0.252544 -0.551508 21.416692 -5.867546 -0.154125 -0.000001 -0.000002 -10.744962 7.635904 2.753974 -0.830567 0.000003 0.000003 -10.930849 0.000000 -0.000001 -0.000003 0.000003 -4.087278 -1.487646 0.000005 -0.000000 -0.000000 2.338570 -0.252549 -0.551499 15.282647 -6.051563 -0.115713 -0.000001 0.000005 -10.744958 7.368597 2.038843 -0.831940 -0.000001 0.000002 -10.930842 -0.000005 -0.000006 -0.000003 0.000002 -4.087274 -1.487649 0.000002 0.000000 -0.000002 
-0.000025 26.511658 40.166222 -5.436974 7.799475 -22.937954 0.000003 0.900109 1.860675 16.551731 -6.917879 0.035245 0.000004 0.400317 2.270304 -0.000001 -0.000000 -0.000003 0.000003 0.200918 2.296553 -0.000000 0.000001 0.000000 0.000003 0.000001 2.305338 0.000015 0.000001 1.974282 0.000000 -0.864476 6.051485 7.818039 -0.108673 -176.531280 0.000001 -0.550434 3.121693 -0.000001 -0.000000 0.000001 -0.788284 -1.313789 4.256724 -220.902497 32.696764 28.331077 -3.915142 0.000005 0.000000 -0.000000 0.000001 -0.000001 -6.914898 0.000011 0.000006 -0.000004 -0.000010 -69.632276 -6.096213 -0.000012 -0.000008 -0.000061 -0.000067 0.000002 -1.749957 0.000015 -0.000008 0.000009 0.000001 0.000002 -0.699995 -1.166617 -0.466642 0.000005 -0.000002 -0.000001 0.788278 -1.313802 4.256713 -161.946053 -43.162031 -4.429410 3.915132 0.000002 -0.000008 -0.000001 -0.000001 0.000003 6.914907 0.000014 0.000003 0.000003 -0.000002 65.934125 6.096224 -0.000002 0.000001 -0.000056 0.000079 -0.000000 1.749951 -0.000003 0.000004 0.000003 -0.000003 -0.000000 0.699973 -1.166624 -0.466653 -0.000002 -0.000005 -0.000004 -2.338571 -0.252546 -0.551501 21.517874 -6.274692 0.048469 -0.000002 0.000003 -10.744960 7.876483 2.490736 -0.842236 0.000002 0.000004 -10.930847 0.000005 -0.000001 -0.000006 0.000004 -4.087273 -1.487647 -0.000001 -0.000001 -0.000002 2.338571 -0.252553 -0.551496 15.712176 -6.601370 0.031870 -0.000001 0.000007 -10.744953 7.682519 1.913294 -0.869603 -0.000002 0.000004 -10.930847 -0.000005 -0.000004 -0.000004 0.000002 -4.087265 -1.487651 0.000000 -0.000000 -0.000004 
-0.000024 26.511665 40.166183 -5.447689 8.257980 -22.645255 0.000002 0.900111 1.860676 16.486530 -8.094454 0.192814 0.000004 0.400314 2.270306 0.000001 -0.000000 -0.000003 0.000002 0.200918 2.296556 -0.000001 0.000001 -0.000001 0.000003 0.000001 2.305331 0.000016 0.000003 2.049444 -0.000002 -0.864479 6.051483 7.622787 1.258083 -175.303116 0.000002 -0.550425 3.121677 -0.000001 -0.000000 0.000005 -0.788285 -1.313795 4.256725 -220.263328 36.108393 30.630352 -3.915139 0.000003 0.000008 -0.000001 -0.000000 -0.000003 -6.914899 0.000008 0.000002 0.000000 -0.000008 -65.869661 -6.096213 -0.000011 0.000002 -0.000066 -0.000070 -0.000000 -1.749955 0.000001 -0.000014 0.000006 -0.000003 0.000000 -0.699993 -1.166626 -0.466646 0.000001 -0.000005 -0.000002 0.788275 -1.313808 4.256717 -168.707626 -40.737448 -9.324898 3.915138 0.000007 -0.000000 -0.000001 0.000000 0.000002 6.914912 0.000015 0.000005 0.000002 -0.000005 68.184754 6.096222 -0.000000 -0.000012 -0.000052 0.000079 -0.000003 1.749950 -0.000005 -0.000000 -0.000001 -0.000003 -0.000001 0.699966 -1.166627 -0.466656 0.000001 -0.000004 -0.000008 -2.338572 -0.252549 -0.551498 21.700648 -6.712361 0.253419 -0.000003 0.000003 -10.744959 8.185605 2.333044 -0.864720 -0.000000 0.000001 -10.930848 0.000005 -0.000003 -0.000004 0.000004 -4.087282 -1.487651 -0.000003 0.000000 -0.000000 2.338571 -0.252555 -0.551491 15.731360 -7.085432 0.182421 -0.000002 0.000006 -10.744957 7.827086 2.121079 -0.879214 -0.000000 0.000003 -10.930845 -0.000005 -0.000007 -0.000003 0.000000 -4.087271 -1.487653 0.000005 0.000001 0.000003 
-0.000025 26.511663 40.166168 -5.785955 8.372398 -22.257136 0.000002 0.900114 1.860675 16.854301 -8.421347 0.240323 0.000004 0.400316 2.270308 -0.000000 0.000000 -0.000003 0.000003 0.200918 2.296555 0.000000 0.000001 0.000000 0.000002 0.000002 2.305338 0.000014 0.000003 2.313328 -0.000000 -0.864478 6.051487 7.107550 2.611196 -175.500905 0.000001 -0.550428 3.121689 -0.000001 -0.000000 0.000005 -0.788283 -1.313795 4.256723 -216.838849 39.684618 30.273502 -3.915143 0.000006 0.000000 -0.000000 -0.000001 -0.000001 -6.914902 0.000007 0.000002 -0.000004 -0.000009 -61.049699 -6.096216 -0.000005 0.000000 -0.000064 -0.000065 0.000003 -1.749958 0.000010 -0.000011 0.000006 -0.000003 -0.000000 -0.699993 -1.166617 -0.466643 0.000003 -0.000005 -0.000002 0.788275 -1.313804 4.256719 -176.867694 -37.022897 -13.821097 3.915130 0.000010 0.000000 0.000000 0.000002 0.000001 6.914907 0.000008 -0.000000 0.000003 -0.000003 71.360915 6.096223 0.000001 0.000001 -0.000049 0.000079 -0.000004 1.749953 -0.000002 0.000004 0.000002 -0.000002 0.000003 0.699977 -1.166624 -0.466653 0.000001 -0.000001 -0.000001 -2.338571 -0.252547 -0.551504 22.034317 -6.865951 0.312758 -0.000001 -0.000001 -10.744957 8.342747 2.582709 -0.883622 0.000001 0.000000 -10.930848 0.000005 0.000001 -0.000003 0.000004 -4.087276 -1.487647 0.000002 -0.000001 -0.000003 2.338570 -0.252549 -0.551495 15.967189 -7.140530 0.226121 -0.000002 0.000009 -10.744957 7.867128 1.873940 -0.872064 -0.000001 0.000004 -10.930846 -0.000007 -0.000006 -0.000002 0.000000 -4.087266 -1.487653 -0.000002 -0.000000 0.000000 
